# xmcd CD database file
#
# Track frame offsets:
#	150
#	35737
#	48550
#	75100
#	87302
#	96440
#	116557
#	142555
#	156605
#
# Disc length: 2354 seconds
#
# Revision: 3
# Processed by: cddbd v1.5.1PL0 Copyright (c) Steve Scherf et al.
# Submitted via: CDex 1.51
#
DISCID=6d093009
DTITLE=Judas Priest - Sad Wings Of Destiny
DYEAR=1976
DGENRE=Heavy Metal
TTITLE0=Victim of Changes
TTITLE1=The Ripper
TTITLE2=Dreamer Deceiver
TTITLE3=Deceiver
TTITLE4=Prelude
TTITLE5=Tyrant
TTITLE6=Genocide
TTITLE7=Epitaph
TTITLE8=Island of Domination
EXTD=YEAR: 1976
EXTT0=
EXTT1=
EXTT2=
EXTT3=
EXTT4=
EXTT5=
EXTT6=
EXTT7=
EXTT8=
PLAYORDER=
